<svg width="15" height="20" viewBox="0 0 15 20" fill="none" xmlns="http://www.w3.org/2000/svg">
<g filter="url(#filter0_d_354_98)">
<path d="M4.64719 12.7244L4.68271 12.4901C4.82949 11.6473 5.02362 10.9749 5.26509 10.473C5.5113 9.97112 5.80723 9.56866 6.15288 9.26562C6.50326 8.95786 6.90335 8.67377 7.35316 8.41335C7.6704 8.23343 7.96159 8.03693 8.22674 7.82386C8.49189 7.60606 8.71443 7.36458 8.89435 7.09943C9.07428 6.83428 9.19028 6.53362 9.24237 6.19744C9.30392 5.82339 9.27077 5.49905 9.14293 5.22443C9.01509 4.94981 8.81623 4.73674 8.54634 4.58523C8.27646 4.43371 7.96159 4.35795 7.60174 4.35795C7.26557 4.35795 6.93176 4.43134 6.60032 4.57812C6.27362 4.72017 5.98716 4.93797 5.74094 5.23153C5.49473 5.52036 5.32665 5.88731 5.23668 6.33239H2.70827C2.88346 5.43276 3.22674 4.67992 3.7381 4.07386C4.24947 3.4678 4.8721 3.01326 5.606 2.71023C6.3399 2.4072 7.12115 2.25568 7.94975 2.25568C8.85411 2.25568 9.62352 2.4143 10.258 2.73153C10.8972 3.04877 11.3612 3.50095 11.65 4.08807C11.9436 4.67045 12.0241 5.36174 11.8915 6.16193C11.8016 6.7017 11.6335 7.18466 11.3873 7.6108C11.1458 8.03693 10.838 8.41572 10.464 8.74716C10.0946 9.0786 9.67324 9.37216 9.19975 9.62784C8.77362 9.85985 8.41613 10.1013 8.12731 10.3523C7.84322 10.6032 7.61358 10.8991 7.43839 11.2401C7.26793 11.581 7.13773 11.9976 7.04776 12.4901L7.01225 12.7244H4.64719ZM5.30771 17.1562C4.8721 17.1562 4.51225 17.0047 4.22816 16.7017C3.94407 16.3987 3.81149 16.0294 3.83043 15.5938C3.84937 15.1676 4.02219 14.8054 4.3489 14.5071C4.6756 14.2088 5.05202 14.0597 5.47816 14.0597C5.89956 14.0597 6.25704 14.2112 6.5506 14.5142C6.8489 14.8172 6.98384 15.1771 6.95543 15.5938C6.93649 15.8873 6.84653 16.1525 6.68555 16.3892C6.5293 16.6259 6.33043 16.813 6.08896 16.9503C5.84748 17.0876 5.58706 17.1562 5.30771 17.1562Z" fill="#FFE600"/>
</g>
<defs>
<filter id="filter0_d_354_98" x="0.708252" y="0.255676" width="13.3821" height="18.9006" filterUnits="userSpaceOnUse" color-interpolation-filters="sRGB">
<feFlood flood-opacity="0" result="BackgroundImageFix"/>
<feColorMatrix in="SourceAlpha" type="matrix" values="0 0 0 0 0 0 0 0 0 0 0 0 0 0 0 0 0 0 127 0" result="hardAlpha"/>
<feOffset/>
<feGaussianBlur stdDeviation="1"/>
<feComposite in2="hardAlpha" operator="out"/>
<feColorMatrix type="matrix" values="0 0 0 0 1 0 0 0 0 0.9 0 0 0 0 0 0 0 0 1 0"/>
<feBlend mode="normal" in2="BackgroundImageFix" result="effect1_dropShadow_354_98"/>
<feBlend mode="normal" in="SourceGraphic" in2="effect1_dropShadow_354_98" result="shape"/>
</filter>
</defs>
</svg>
